<svg width="18" height="20" viewBox="0 0 18 20" fill="none" xmlns="http://www.w3.org/2000/svg">
<path fill-rule="evenodd" clip-rule="evenodd" d="M12.1885 0C15.7219 0 17.749 1.60904 17.749 4.41217V18.3425C17.749 18.9271 17.4219 19.4532 16.8719 19.7474C16.324 20.0426 15.6635 20.0483 15.1094 19.7608L8.90104 16.5341L2.63542 19.7675C2.36458 19.9075 2.06771 19.9784 1.76979 19.9784C1.4625 19.9784 1.15521 19.9027 0.876042 19.7513C0.327083 19.457 0 18.9309 0 18.3473V4.23679C0 1.54388 2.02813 0 5.56458 0H12.1885ZM12.1885 1.4375H5.56458C2.90938 1.4375 1.5625 2.37858 1.5625 4.23679V18.3473C1.5625 18.4374 1.61875 18.4862 1.66563 18.5112C1.7125 18.538 1.78646 18.5572 1.87188 18.5131L8.51979 15.0823C8.75729 14.9605 9.04792 14.9596 9.28646 15.0832L15.8771 18.5083C15.9635 18.5543 16.0375 18.5332 16.0844 18.5073C16.1313 18.4815 16.1865 18.4326 16.1865 18.3425L16.1861 4.30296C16.1782 3.47815 16.0047 1.4375 12.1885 1.4375ZM12.6456 6.44815C13.0769 6.44815 13.4269 6.77015 13.4269 7.1669C13.4269 7.56365 13.0769 7.88565 12.6456 7.88565H5.02271C4.59146 7.88565 4.24146 7.56365 4.24146 7.1669C4.24146 6.77015 4.59146 6.44815 5.02271 6.44815H12.6456Z" fill="black"/>
</svg>
