<svg width="22" height="23" viewBox="0 0 22 23" fill="none" xmlns="http://www.w3.org/2000/svg">
<path fill-rule="evenodd" clip-rule="evenodd" d="M12.2052 14.8867C13.4594 14.8867 14.4802 15.9003 14.4802 17.1461V20.3503C14.4802 20.618 14.6948 20.8326 14.9698 20.8388H16.9552C18.5198 20.8388 19.7917 19.5826 19.7917 18.0388V8.9513C19.7844 8.42005 19.5312 7.92005 19.0969 7.58776L12.2292 2.11068C11.3073 1.38047 10.0177 1.38047 9.09271 2.11276L2.27187 7.58568C1.82083 7.92839 1.56771 8.42839 1.5625 8.96901V18.0388C1.5625 19.5826 2.83437 20.8388 4.39896 20.8388H6.40312C6.68542 20.8388 6.91458 20.6148 6.91458 20.3398C6.91458 20.2794 6.92187 20.219 6.93437 20.1617V17.1461C6.93437 15.9076 7.94896 14.8951 9.19375 14.8867H12.2052ZM16.9552 22.4013H14.951C13.8031 22.3742 12.9177 21.4732 12.9177 20.3503V17.1461C12.9177 16.7617 12.5979 16.4492 12.2052 16.4492H9.19896C8.81458 16.4513 8.49687 16.7648 8.49687 17.1461V20.3398C8.49687 20.418 8.48646 20.493 8.46458 20.5638C8.35208 21.5951 7.47083 22.4013 6.40312 22.4013H4.39896C1.97292 22.4013 0 20.444 0 18.0388V8.96172C0.0104167 7.9263 0.4875 6.97839 1.31146 6.35443L8.11875 0.890886C9.61771 -0.296614 11.7063 -0.296614 13.2021 0.888802L20.0583 6.35755C20.8635 6.97109 21.3406 7.91693 21.3542 8.93984V18.0388C21.3542 20.444 19.3813 22.4013 16.9552 22.4013Z" fill="black"/>
</svg>
