<svg width="99" height="30" viewBox="0 0 99 30" fill="none" xmlns="http://www.w3.org/2000/svg">
<path d="M12 8.29994V24.3299C11.83 24.3299 11.65 24.2999 11.51 24.2199L11.47 24.1999C9.55 23.1499 6.2 22.0499 4.03 21.7599L3.74 21.7199C2.78 21.5999 2 20.6999 2 19.7399V7.65994C2 6.46994 2.97 5.56994 4.16 5.66994C6.26 5.83994 9.44 6.89994 11.22 8.00994L11.47 8.15994C11.62 8.24994 11.81 8.29994 12 8.29994Z" fill="#BFA054"/>
<path d="M22 7.67003V19.74C22 20.7 21.22 21.6 20.26 21.72L19.93 21.76C17.75 22.05 14.39 23.16 12.47 24.22C12.34 24.3 12.18 24.33 12 24.33V8.30003C12.19 8.30003 12.38 8.25003 12.53 8.16003L12.7 8.05003C14.48 6.93003 17.67 5.86003 19.77 5.68003H19.83C21.02 5.58003 22 6.47003 22 7.67003Z" fill="#2F2F2F"/>
<path d="M7.75 12.24H5.5C5.09 12.24 4.75 11.9 4.75 11.49C4.75 11.08 5.09 10.74 5.5 10.74H7.75C8.16 10.74 8.5 11.08 8.5 11.49C8.5 11.9 8.16 12.24 7.75 12.24Z" fill="#2F2F2F"/>
<path d="M8.5 15.24H5.5C5.09 15.24 4.75 14.9 4.75 14.49C4.75 14.08 5.09 13.74 5.5 13.74H8.5C8.91 13.74 9.25 14.08 9.25 14.49C9.25 14.9 8.91 15.24 8.5 15.24Z" fill="#2F2F2F"/>
<path d="M31.484 23V22.78L31.88 22.626C32.1733 22.5087 32.3713 22.362 32.474 22.186C32.5913 22.01 32.65 21.7753 32.65 21.482V9.998C32.65 9.69 32.5913 9.448 32.474 9.272C32.3713 9.096 32.1733 8.95667 31.88 8.854L31.484 8.7V8.48H37.798C39.5873 8.48 40.878 8.81 41.67 9.47C42.462 10.1153 42.858 10.9367 42.858 11.934C42.858 12.682 42.5647 13.364 41.978 13.98C41.406 14.5813 40.416 15.0067 39.008 15.256C40.6213 15.432 41.802 15.8573 42.55 16.532C43.298 17.192 43.672 17.9987 43.672 18.952C43.672 19.4213 43.5693 19.898 43.364 20.382C43.1587 20.8513 42.8067 21.284 42.308 21.68C41.824 22.076 41.1567 22.3987 40.306 22.648C39.4553 22.8827 38.3773 23 37.072 23H31.484ZM35.906 15.234H36.852C37.8347 15.234 38.5387 15.0067 38.964 14.552C39.404 14.0973 39.624 13.3053 39.624 12.176C39.624 11.0027 39.426 10.1667 39.03 9.668C38.634 9.16933 37.9887 8.92 37.094 8.92H35.906V15.234ZM35.906 22.56H37.006C38.106 22.56 38.92 22.2667 39.448 21.68C39.9907 21.0933 40.262 20.1767 40.262 18.93C40.262 17.7567 40.0053 16.9207 39.492 16.422C38.9787 15.9233 38.1353 15.674 36.962 15.674H35.906V22.56ZM50.2833 23.33C49.1687 23.33 48.2007 23.1027 47.3793 22.648C46.558 22.1787 45.92 21.5187 45.4653 20.668C45.0253 19.8173 44.8053 18.82 44.8053 17.676C44.8053 16.532 45.04 15.542 45.5093 14.706C45.9933 13.87 46.646 13.2247 47.4673 12.77C48.3033 12.3153 49.242 12.088 50.2833 12.088C51.3247 12.088 52.256 12.3153 53.0773 12.77C53.8987 13.21 54.544 13.848 55.0133 14.684C55.4973 15.52 55.7393 16.5173 55.7393 17.676C55.7393 18.8347 55.512 19.8393 55.0573 20.69C54.6173 21.526 53.9867 22.1787 53.1653 22.648C52.3587 23.1027 51.398 23.33 50.2833 23.33ZM50.2833 22.89C50.7967 22.89 51.2073 22.7433 51.5153 22.45C51.8233 22.1567 52.0433 21.636 52.1753 20.888C52.322 20.14 52.3953 19.084 52.3953 17.72C52.3953 16.3413 52.322 15.278 52.1753 14.53C52.0433 13.782 51.8233 13.2613 51.5153 12.968C51.2073 12.6747 50.7967 12.528 50.2833 12.528C49.77 12.528 49.352 12.6747 49.0293 12.968C48.7213 13.2613 48.494 13.782 48.3473 14.53C48.2153 15.278 48.1493 16.3413 48.1493 17.72C48.1493 19.084 48.2153 20.14 48.3473 20.888C48.494 21.636 48.7213 22.1567 49.0293 22.45C49.352 22.7433 49.77 22.89 50.2833 22.89ZM62.4005 23.33C61.2859 23.33 60.3179 23.1027 59.4965 22.648C58.6752 22.1787 58.0372 21.5187 57.5825 20.668C57.1425 19.8173 56.9225 18.82 56.9225 17.676C56.9225 16.532 57.1572 15.542 57.6265 14.706C58.1105 13.87 58.7632 13.2247 59.5845 12.77C60.4205 12.3153 61.3592 12.088 62.4005 12.088C63.4419 12.088 64.3732 12.3153 65.1945 12.77C66.0159 13.21 66.6612 13.848 67.1305 14.684C67.6145 15.52 67.8565 16.5173 67.8565 17.676C67.8565 18.8347 67.6292 19.8393 67.1745 20.69C66.7345 21.526 66.1039 22.1787 65.2825 22.648C64.4759 23.1027 63.5152 23.33 62.4005 23.33ZM62.4005 22.89C62.9139 22.89 63.3245 22.7433 63.6325 22.45C63.9405 22.1567 64.1605 21.636 64.2925 20.888C64.4392 20.14 64.5125 19.084 64.5125 17.72C64.5125 16.3413 64.4392 15.278 64.2925 14.53C64.1605 13.782 63.9405 13.2613 63.6325 12.968C63.3245 12.6747 62.9139 12.528 62.4005 12.528C61.8872 12.528 61.4692 12.6747 61.1465 12.968C60.8385 13.2613 60.6112 13.782 60.4645 14.53C60.3325 15.278 60.2665 16.3413 60.2665 17.72C60.2665 19.084 60.3325 20.14 60.4645 20.888C60.6112 21.636 60.8385 22.1567 61.1465 22.45C61.4692 22.7433 61.8872 22.89 62.4005 22.89ZM68.7809 23V22.78L69.1109 22.67C69.6095 22.5087 69.8589 22.1493 69.8589 21.592V9.822C69.8589 9.52867 69.8002 9.30867 69.6829 9.162C69.5655 9.01533 69.3602 8.898 69.0669 8.81L68.7809 8.744V8.524L72.8069 7.578L73.0709 7.776L73.0049 10.856V21.592C73.0049 22.1787 73.2469 22.5453 73.7309 22.692L74.0389 22.78V23H68.7809ZM76.9429 23L73.0269 17.5L77.0969 13.738C77.2875 13.562 77.3975 13.3787 77.4269 13.188C77.4709 12.9827 77.3462 12.836 77.0529 12.748L76.6789 12.638V12.418H79.9569V12.638L79.2969 12.814C78.9742 12.9167 78.7102 13.0413 78.5049 13.188C78.3142 13.32 78.0795 13.5107 77.8009 13.76L75.3369 16.07L79.2749 21.548C79.5095 21.8707 79.7295 22.12 79.9349 22.296C80.1402 22.472 80.4042 22.6187 80.7269 22.736L80.8149 22.78V23H76.9429ZM84.1816 10.944C83.6829 10.944 83.2576 10.79 82.9056 10.482C82.5682 10.1593 82.3996 9.756 82.3996 9.272C82.3996 8.77333 82.5682 8.37 82.9056 8.062C83.2576 7.754 83.6829 7.6 84.1816 7.6C84.6802 7.6 85.0982 7.754 85.4356 8.062C85.7729 8.37 85.9416 8.77333 85.9416 9.272C85.9416 9.756 85.7729 10.1593 85.4356 10.482C85.0982 10.79 84.6802 10.944 84.1816 10.944ZM81.5856 23V22.78L81.8936 22.692C82.1869 22.604 82.3849 22.472 82.4876 22.296C82.6049 22.12 82.6636 21.8853 82.6636 21.592V14.706C82.6636 14.398 82.6049 14.1707 82.4876 14.024C82.3849 13.8627 82.1869 13.7527 81.8936 13.694L81.5856 13.628V13.408L85.6116 12.11L85.8316 12.33L85.7656 15.454V21.614C85.7656 21.9073 85.8169 22.142 85.9196 22.318C86.0369 22.494 86.2349 22.626 86.5136 22.714L86.7336 22.78V23H81.5856ZM90.9196 23.33C90.0689 23.33 89.3502 23.088 88.7636 22.604C88.1916 22.12 87.9056 21.4233 87.9056 20.514C87.9056 19.8247 88.2576 19.194 88.9616 18.622C89.6656 18.0353 90.7729 17.5953 92.2836 17.302C92.5182 17.258 92.7822 17.214 93.0756 17.17C93.3689 17.1113 93.6769 17.0527 93.9996 16.994V15.256C93.9996 14.2587 93.8749 13.562 93.6256 13.166C93.3909 12.7553 93.0169 12.55 92.5036 12.55C92.1516 12.55 91.8729 12.6673 91.6676 12.902C91.4622 13.122 91.3302 13.5107 91.2716 14.068L91.2276 14.31C91.1982 14.9407 91.0442 15.4027 90.7656 15.696C90.4869 15.9893 90.1422 16.136 89.7316 16.136C89.3502 16.136 89.0349 16.0187 88.7856 15.784C88.5362 15.5493 88.4116 15.234 88.4116 14.838C88.4116 14.2367 88.6169 13.7307 89.0276 13.32C89.4529 12.9093 90.0102 12.6013 90.6996 12.396C91.3889 12.1907 92.1369 12.088 92.9436 12.088C94.2489 12.088 95.2536 12.4107 95.9576 13.056C96.6762 13.6867 97.0356 14.7207 97.0356 16.158V21.02C97.0356 21.68 97.3436 22.01 97.9596 22.01H98.4436L98.6416 22.186C98.3629 22.538 98.0549 22.8093 97.7176 23C97.3949 23.1907 96.9329 23.286 96.3316 23.286C95.6862 23.286 95.1729 23.1393 94.7916 22.846C94.4249 22.538 94.1829 22.1347 94.0656 21.636C93.6256 22.1053 93.1709 22.5087 92.7016 22.846C92.2469 23.1687 91.6529 23.33 90.9196 23.33ZM92.2616 21.988C92.5549 21.988 92.8262 21.922 93.0756 21.79C93.3396 21.6433 93.6476 21.4233 93.9996 21.13V17.434C93.8529 17.4633 93.7062 17.4927 93.5596 17.522C93.4129 17.5513 93.2442 17.5807 93.0536 17.61C92.3789 17.786 91.8362 18.0867 91.4256 18.512C91.0296 18.9227 90.8316 19.48 90.8316 20.184C90.8316 20.7853 90.9709 21.24 91.2496 21.548C91.5282 21.8413 91.8656 21.988 92.2616 21.988Z" fill="#2F2F2F"/>
</svg>
