<svg width="20" height="19" viewBox="0 0 20 19" fill="none" xmlns="http://www.w3.org/2000/svg">
<path d="M8.50569 14.0005C9.34338 14.0005 10.1729 13.8453 10.9468 13.5438C11.7207 13.2423 12.4239 12.8003 13.0162 12.2431C13.6086 11.686 14.0784 11.0246 14.399 10.2966C14.7196 9.56865 14.8846 8.78843 14.8846 8.0005C14.8846 7.21257 14.7196 6.43236 14.399 5.7044C14.0784 4.97645 13.6086 4.31501 13.0162 3.75786C12.4239 3.20071 11.7207 2.75875 10.9468 2.45723C10.1729 2.1557 9.34338 2.0005 8.50569 2.0005C6.81391 2.0005 5.19142 2.63264 3.99515 3.75786C2.79888 4.88308 2.12682 6.4092 2.12682 8.0005C2.12682 9.5918 2.79888 11.1179 3.99515 12.2431C5.19142 13.3684 6.81391 14.0005 8.50569 14.0005ZM15.2248 12.9065L19.0308 16.4865C19.1323 16.5788 19.2132 16.6892 19.2688 16.8113C19.3244 16.9333 19.3537 17.0645 19.3548 17.1973C19.3559 17.3301 19.3289 17.4618 19.2754 17.5846C19.2218 17.7075 19.1428 17.8191 19.0429 17.9129C18.943 18.0067 18.8243 18.0809 18.6936 18.1311C18.5629 18.1813 18.4229 18.2065 18.2817 18.2052C18.1405 18.204 18.0011 18.1763 17.8714 18.1238C17.7417 18.0713 17.6245 17.9951 17.5265 17.8995L13.7204 14.3195C12.0114 15.5674 9.86098 16.1557 7.70701 15.9647C5.55303 15.7737 3.5574 14.8178 2.12635 13.2916C0.695296 11.7653 -0.0635889 9.78345 0.00417711 7.74943C0.0719431 5.7154 0.961266 3.78213 2.49111 2.34315C4.02095 0.904173 6.0763 0.0676701 8.23876 0.00392902C10.4012 -0.0598121 12.5082 0.654 14.1309 2.00005C15.7535 3.34611 16.7698 5.22322 16.9728 7.24926C17.1758 9.2753 16.5503 11.298 15.2237 12.9055L15.2248 12.9065Z" fill="#181B19"/>
</svg>
